<?xml version="1.0" encoding="UTF-8"?>
<!DOCTYPE svg PUBLIC "-//W3C//DTD SVG 1.1//EN" "http://www.w3.org/Graphics/SVG/1.1/DTD/svg11.dtd">
<!-- Creator: CorelDRAW X8 -->
<svg xmlns="http://www.w3.org/2000/svg" xml:space="preserve" width="41.7222mm" height="26.0395mm" version="1.1" style="shape-rendering:geometricPrecision; text-rendering:geometricPrecision; image-rendering:optimizeQuality; fill-rule:evenodd; clip-rule:evenodd"
viewBox="0 0 1996 1246"
 xmlns:xlink="http://www.w3.org/1999/xlink">
 <defs>
  <style type="text/css">
   <![CDATA[
    .fil20 {fill:#FEFEFE;fill-rule:nonzero}
    .fil5 {fill:url(#id0)}
    .fil9 {fill:url(#id1)}
    .fil11 {fill:url(#id2)}
    .fil0 {fill:url(#id3)}
    .fil4 {fill:url(#id4)}
    .fil12 {fill:url(#id5)}
    .fil16 {fill:url(#id6)}
    .fil15 {fill:url(#id7)}
    .fil14 {fill:url(#id8)}
    .fil18 {fill:url(#id9)}
    .fil13 {fill:url(#id10)}
    .fil7 {fill:url(#id11)}
    .fil8 {fill:url(#id12)}
    .fil6 {fill:url(#id13)}
    .fil1 {fill:url(#id14)}
    .fil2 {fill:url(#id15)}
    .fil10 {fill:url(#id16)}
    .fil3 {fill:url(#id17)}
    .fil19 {fill:url(#id18)}
    .fil17 {fill:url(#id19)}
   ]]>
  </style>
  <linearGradient id="id0" gradientUnits="userSpaceOnUse" x1="731.923" y1="198.059" x2="731.923" y2="-149.828">
   <stop offset="0" style="stop-opacity:1; stop-color:#92C570"/>
   <stop offset="1" style="stop-opacity:1; stop-color:#DCE06B"/>
  </linearGradient>
  <linearGradient id="id1" gradientUnits="userSpaceOnUse" x1="476.7" y1="274.966" x2="476.7" y2="655.61">
   <stop offset="0" style="stop-opacity:1; stop-color:#F7A707"/>
   <stop offset="1" style="stop-opacity:1; stop-color:#EA557A"/>
  </linearGradient>
  <linearGradient id="id2" gradientUnits="userSpaceOnUse" xlink:href="#id1" x1="476.7" y1="274.99" x2="476.7" y2="655.605">
  </linearGradient>
  <linearGradient id="id3" gradientUnits="userSpaceOnUse" x1="186.24" y1="458.78" x2="186.24" y2="800.739">
   <stop offset="0" style="stop-opacity:1; stop-color:#1FB6EA"/>
   <stop offset="1" style="stop-opacity:1; stop-color:#009B94"/>
  </linearGradient>
  <linearGradient id="id4" gradientUnits="userSpaceOnUse" xlink:href="#id0" x1="597.115" y1="198.059" x2="597.115" y2="-149.828">
  </linearGradient>
  <linearGradient id="id5" gradientUnits="userSpaceOnUse" xlink:href="#id1" x1="678.921" y1="274.999" x2="678.921" y2="655.595">
  </linearGradient>
  <linearGradient id="id6" gradientUnits="userSpaceOnUse" x1="179.642" y1="377.572" x2="179.642" y2="22.795">
   <stop offset="0" style="stop-opacity:1; stop-color:#EA5575"/>
   <stop offset="1" style="stop-opacity:1; stop-color:#A95199"/>
  </linearGradient>
  <linearGradient id="id7" gradientUnits="userSpaceOnUse" xlink:href="#id6" x1="122.301" y1="377.572" x2="122.301" y2="22.795">
  </linearGradient>
  <linearGradient id="id8" gradientUnits="userSpaceOnUse" xlink:href="#id1" x1="544.099" y1="274.999" x2="544.099" y2="655.595">
  </linearGradient>
  <linearGradient id="id9" gradientUnits="userSpaceOnUse" xlink:href="#id6" x1="294.349" y1="377.572" x2="294.349" y2="22.7854">
  </linearGradient>
  <linearGradient id="id10" gradientUnits="userSpaceOnUse" xlink:href="#id1" x1="409.286" y1="274.999" x2="409.286" y2="655.595">
  </linearGradient>
  <linearGradient id="id11" gradientUnits="userSpaceOnUse" xlink:href="#id0" x1="664.519" y1="198.059" x2="664.519" y2="-149.809">
  </linearGradient>
  <linearGradient id="id12" gradientUnits="userSpaceOnUse" xlink:href="#id1" x1="611.517" y1="274.966" x2="611.517" y2="655.61">
  </linearGradient>
  <linearGradient id="id13" gradientUnits="userSpaceOnUse" xlink:href="#id0" x1="529.711" y1="198.059" x2="529.711" y2="-149.809">
  </linearGradient>
  <linearGradient id="id14" gradientUnits="userSpaceOnUse" xlink:href="#id3" x1="186.25" y1="458.766" x2="186.25" y2="800.743">
  </linearGradient>
  <linearGradient id="id15" gradientUnits="userSpaceOnUse" xlink:href="#id3" x1="186.25" y1="458.78" x2="186.25" y2="800.748">
  </linearGradient>
  <linearGradient id="id16" gradientUnits="userSpaceOnUse" xlink:href="#id1" x1="611.503" y1="274.99" x2="611.503" y2="655.605">
  </linearGradient>
  <linearGradient id="id17" gradientUnits="userSpaceOnUse" xlink:href="#id0" x1="462.297" y1="198.059" x2="462.297" y2="-149.828">
  </linearGradient>
  <linearGradient id="id18" gradientUnits="userSpaceOnUse" xlink:href="#id6" x1="351.691" y1="377.577" x2="351.691" y2="22.7902">
  </linearGradient>
  <linearGradient id="id19" gradientUnits="userSpaceOnUse" xlink:href="#id6" x1="236.998" y1="377.572" x2="236.998" y2="22.7902">
  </linearGradient>
 </defs>
 <g id="Warstwa_x0020_1">
  <metadata id="CorelCorpID_0Corel-Layer"/>
  <g id="_1977842184992">
   <path class="fil0" d="M310 655l0 0c22,0 33,-15 41,-26 8,-10 12,-16 21,-16l0 0 0 -24 0 0c-21,0 -32,15 -40,26 -8,10 -13,16 -22,16l0 0c-9,0 -13,-6 -21,-16 -8,-11 -19,-26 -41,-26 -21,0 -32,15 -40,26 -8,10 -13,16 -22,16 -9,0 -13,-6 -21,-16 -8,-11 -19,-26 -41,-26 -21,0 -32,15 -40,26 -8,10 -13,16 -22,16 -9,0 -14,-6 -21,-16 -8,-11 -19,-26 -41,-26l0 24c9,0 14,6 21,16 9,11 20,26 41,26 22,0 33,-15 41,-26 8,-10 12,-16 21,-16 9,0 14,6 22,16 8,11 19,26 40,26 22,0 33,-15 41,-26 8,-10 12,-16 21,-16 9,0 14,6 22,16 8,11 19,26 40,26zm41 -26l0 0zm-19 -14l0 0zm-43 0l0 0zm-41 -26l0 0zm-40 26l0 0zm-22 16l0 0zm-21 -16l0 0zm-41 -26l0 0zm-40 26l0 0zm-22 16l0 0zm-21 -16l0 0zm-20 14l0 0zm82 0l0 0zm21 -16l0 0zm22 16l0 0zm81 0l0 0zm21 -16l0 0zm22 16l0 0z"/>
   <path class="fil1" d="M310 746l0 -24c-21,0 -32,15 -40,26 -8,10 -13,16 -22,16l0 0c-9,0 -13,-6 -21,-16 -8,-11 -19,-26 -41,-26 -21,0 -32,15 -40,26 -8,10 -13,16 -22,16 -9,0 -13,-6 -21,-16 -8,-11 -19,-26 -41,-26l0 24c9,0 14,6 21,16 9,11 20,26 41,26 22,0 33,-15 41,-26 8,-10 12,-16 21,-16 9,0 14,6 22,16 8,11 19,26 40,26l0 0c22,0 33,-15 41,-26 8,-10 12,-16 21,-16zm-40 2l0 0zm-43 0l0 0zm-81 0l0 0zm-22 16l0 0zm-21 -16l0 0zm-20 14l0 0zm41 26l0 0zm41 -26l0 0zm21 -16l0 0zm22 16l0 0zm81 0l0 0z"/>
   <path class="fil2" d="M310 521l0 -24c-9,0 -13,-5 -21,-16 -8,-10 -19,-25 -41,-25 -21,0 -32,14 -40,25 -8,11 -13,16 -22,16 -9,0 -13,-5 -21,-16 -8,-10 -19,-25 -41,-25l0 0c-21,0 -32,15 -40,25 -8,11 -13,16 -22,16l0 24c22,0 33,-15 41,-25 8,-11 12,-16 21,-16l0 0c9,0 14,5 22,16 8,10 19,25 40,25 22,0 33,-15 41,-25 8,-11 12,-16 21,-16 9,0 14,5 22,16 8,10 19,25 40,25zm-21 -40l0 0zm-41 -25l0 0zm-40 25l0 0zm-22 16l0 0zm-21 -16l0 0zm-81 0l0 0zm19 15l0 0zm43 0l0 0zm81 0l0 0zm21 -16l0 0zm22 16l0 0z"/>
   <path class="fil3" d="M429 34c0,18 15,33 33,33l0 0c19,0 34,-15 34,-33l0 0c0,-19 -15,-34 -34,-34 -18,0 -33,15 -33,34z"/>
   <path class="fil4" d="M563 34c0,18 16,33 34,33l0 0c19,0 34,-15 34,-33l0 0c0,-19 -15,-34 -34,-34 -18,0 -34,15 -34,34z"/>
   <path class="fil5" d="M698 34c0,18 15,33 34,33l0 0c19,0 34,-15 34,-33l0 0c0,-19 -15,-34 -34,-34 -19,0 -34,15 -34,34z"/>
   <path class="fil6" d="M496 169c0,18 15,33 34,33l0 0c18,0 33,-15 33,-33l0 0c0,-19 -15,-34 -33,-34 -19,0 -34,15 -34,34z"/>
   <path class="fil7" d="M631 169c0,18 15,33 34,33l0 0c18,0 33,-15 33,-33 0,-19 -15,-34 -33,-34 -19,0 -34,15 -34,34l0 0z"/>
   <path class="fil8" d="M565 550l47 93 46 -93 -93 0zm24 15l45 0 -22 45 -23 -45z"/>
   <path class="fil9" d="M430 550l47 93 46 -93 -93 0zm25 15l44 0 -22 45 -22 -45z"/>
   <path class="fil10" d="M565 364l93 0 -47 -93 -46 93zm46 -59l23 44 -45 0 22 -44z"/>
   <path class="fil11" d="M430 364l93 0 -46 -93 -47 93zm47 -59l22 44 -44 0 22 -44z"/>
   <path class="fil12" d="M633 415l46 93 46 -93 -92 0zm24 15l44 0 -22 45 -22 -45z"/>
   <path class="fil13" d="M363 415l46 93 47 -93 -93 0zm24 15l44 0 -22 45 -22 -45z"/>
   <path class="fil14" d="M498 499l92 0 -46 -93 -46 93zm46 -59l22 44 -44 0 22 -44z"/>
   <path class="fil15" d="M161 374l0 0c2,0 3,0 5,-1l0 0c7,-3 9,-11 6,-17l0 0 -77 -153c-2,-5 -6,-7 -11,-7l0 0c-2,0 -4,0 -6,1l0 0c-6,3 -8,11 -5,17l0 0 76 153c2,4 7,7 12,7z"/>
   <path class="fil16" d="M237 374l0 0c2,0 4,0 6,-1l0 0c6,-3 9,-11 5,-17l0 0 -114 -230c-3,-4 -7,-7 -12,-7l0 0c-2,0 -4,1 -5,2l0 0c-7,3 -9,10 -6,17l0 0 115 229c2,4 6,7 11,7z"/>
   <path class="fil17" d="M161 43l-1 0c-1,0 -3,0 -5,1l0 0c-6,3 -9,11 -6,17l0 0 153 306c2,4 7,7 11,7l0 0c2,0 4,0 6,-1l0 0c6,-3 9,-11 6,-17l0 0 -153 -306c-2,-5 -7,-7 -11,-7z"/>
   <path class="fil18" d="M237 43l0 0c-2,0 -4,0 -6,1l0 0c-6,3 -9,11 -5,17l0 0 114 230c3,4 7,7 12,7l0 0c2,0 4,-1 5,-2l0 0c7,-3 9,-11 6,-17l0 0 -115 -229c-2,-5 -6,-7 -11,-7z"/>
   <path class="fil19" d="M390 221l0 0c2,0 4,0 6,-1l0 0c6,-3 8,-11 5,-17l0 0 -76 -153c-2,-5 -7,-7 -12,-7l0 0c-1,0 -3,0 -5,1l0 0c-7,3 -9,11 -6,17l0 0 77 153c2,5 6,7 11,7z"/>
   <path class="fil20" d="M549 828c-1,3 -2,6 -4,11 -2,4 -4,9 -6,15 -2,6 -5,12 -7,19 -3,7 -6,14 -9,22l51 0c-3,-8 -5,-15 -8,-22 -2,-7 -5,-13 -7,-19 -2,-6 -4,-11 -6,-15 -2,-5 -3,-8 -4,-11zm47 137c-2,-7 -4,-13 -6,-19 -2,-7 -4,-13 -7,-20l-69 0c-2,7 -4,13 -6,20 -3,6 -5,12 -7,19l-41 0c7,-19 13,-37 19,-53 6,-16 12,-31 18,-46 5,-14 11,-27 16,-40 6,-13 12,-26 18,-38l37 0c6,12 12,25 17,38 6,13 12,26 17,40 6,15 12,30 18,46 6,16 12,34 19,53l-43 0z"/>
   <path class="fil20" d="M692 893c0,22 8,32 26,32 3,0 7,0 11,-1 3,-1 6,-3 8,-4l0 -61c-2,0 -4,0 -6,0 -3,-1 -6,-1 -9,-1 -10,0 -18,3 -23,10 -5,7 -7,15 -7,25zm83 55c0,22 -5,38 -17,49 -11,10 -28,15 -51,15 -8,0 -16,0 -25,-2 -8,-1 -15,-3 -22,-5l6 -32c6,2 13,4 19,5 7,2 14,2 22,2 11,0 19,-2 23,-7 5,-5 7,-11 7,-18l0 -5c-4,2 -8,3 -12,4 -5,1 -9,2 -15,2 -18,0 -32,-6 -42,-17 -10,-11 -15,-26 -15,-46 0,-10 2,-18 5,-27 3,-8 7,-15 13,-20 6,-6 13,-11 22,-14 8,-3 18,-4 28,-4 5,0 10,0 15,0 4,1 9,1 14,2 5,1 9,1 14,2 4,1 8,2 11,3l0 113z"/>
   <path class="fil20" d="M867 967c-11,0 -19,-1 -26,-3 -7,-3 -13,-6 -17,-10 -4,-4 -6,-9 -8,-14 -1,-6 -2,-12 -2,-19l0 -148 38 -6 0 146c0,3 0,6 1,9 0,3 1,5 3,7 1,2 3,3 6,5 3,1 6,1 11,2l-6 31z"/>
   <path class="fil20" d="M984 897c0,-11 -2,-21 -7,-27 -4,-7 -11,-10 -20,-10 -8,0 -15,3 -20,10 -5,6 -7,16 -7,27 0,12 2,21 7,28 5,7 12,11 20,11 9,0 16,-4 20,-11 5,-7 7,-16 7,-28zm39 0c0,11 -2,21 -5,29 -3,9 -7,16 -13,23 -6,6 -12,11 -21,14 -8,3 -17,5 -27,5 -10,0 -18,-2 -27,-5 -8,-3 -14,-8 -20,-14 -6,-7 -11,-14 -14,-23 -3,-8 -5,-18 -5,-29 0,-10 2,-20 5,-28 4,-9 8,-16 14,-23 6,-6 13,-10 21,-14 8,-3 17,-5 26,-5 10,0 19,2 27,5 8,4 15,8 21,14 5,7 10,14 13,23 3,8 5,18 5,28z"/>
   <path class="fil20" d="M1129 894c0,-13 -1,-21 -5,-26 -3,-5 -8,-8 -16,-8 -2,0 -5,0 -7,0 -3,1 -5,1 -7,1l0 104 -38 0 0 -130c3,-1 7,-1 11,-2 4,-1 9,-2 14,-3 5,-1 9,-1 15,-2 5,0 10,0 15,0 9,0 17,1 23,3 6,3 11,6 15,9 5,-4 12,-7 19,-9 7,-2 13,-3 19,-3 11,0 20,1 27,4 6,3 12,7 16,13 4,5 7,12 8,19 2,8 3,16 3,25l0 76 -38 0 0 -71c0,-13 -2,-21 -5,-26 -3,-5 -9,-8 -16,-8 -2,0 -5,0 -9,1 -3,2 -6,3 -9,4 1,4 2,8 3,13 0,4 0,9 0,14l0 73 -38 0 0 -71z"/>
   <path class="fil20" d="M1361 884c0,-3 -1,-6 -2,-9 -1,-3 -2,-6 -4,-8 -2,-3 -4,-5 -7,-6 -3,-2 -7,-3 -11,-3 -5,0 -8,1 -11,3 -3,1 -6,3 -8,5 -2,3 -4,5 -5,9 -1,3 -2,6 -2,9l50 0zm-89 15c0,-12 2,-23 5,-32 4,-8 9,-16 15,-22 6,-6 13,-10 20,-13 8,-3 16,-5 24,-5 19,0 34,6 45,18 11,11 17,28 17,51 0,2 0,4 -1,7 0,3 0,5 0,7l-86 0c1,8 4,14 11,19 6,4 15,7 26,7 7,0 14,-1 20,-2 7,-2 12,-3 17,-5l5 31c-2,1 -5,2 -8,3 -4,1 -8,2 -12,2 -4,1 -8,2 -13,2 -5,1 -10,1 -14,1 -12,0 -23,-2 -32,-5 -9,-4 -16,-9 -22,-15 -6,-6 -10,-13 -13,-22 -3,-8 -4,-18 -4,-27z"/>
   <path class="fil20" d="M1511 864c-3,-1 -7,-1 -12,-2 -5,-1 -10,-2 -15,-2 -2,0 -5,0 -8,1 -4,0 -6,1 -8,1l0 103 -38 0 0 -127c7,-3 15,-5 24,-7 10,-2 20,-3 31,-3 2,0 5,0 8,0 2,1 5,1 8,1 3,1 6,1 9,2 3,0 5,1 7,2l-6 31z"/>
   <path class="fil20" d="M1590 938c3,0 7,0 10,0 4,0 6,-1 8,-1l0 -29c-1,0 -3,0 -6,-1 -3,0 -6,0 -9,0 -3,0 -7,0 -10,0 -3,1 -6,2 -8,3 -3,1 -4,3 -6,5 -1,2 -2,4 -2,7 0,6 2,10 6,13 4,2 10,3 17,3zm-3 -111c11,0 20,1 28,4 7,2 13,6 17,11 5,5 8,10 10,17 2,7 3,15 3,23l0 79c-6,1 -13,2 -23,4 -10,2 -21,2 -35,2 -9,0 -16,0 -23,-2 -8,-1 -14,-4 -19,-7 -5,-4 -9,-8 -11,-14 -3,-6 -4,-13 -4,-21 0,-7 1,-14 4,-20 3,-5 8,-9 13,-12 5,-4 11,-6 18,-7 7,-2 14,-3 21,-3 5,0 9,1 13,1 4,0 7,1 9,2l0 -4c0,-6 -2,-12 -5,-15 -4,-4 -11,-6 -21,-6 -6,0 -13,0 -19,1 -6,1 -12,2 -16,4l-5 -31c2,0 5,-1 8,-2 4,0 7,-1 11,-2 4,0 8,-1 12,-1 5,-1 9,-1 14,-1z"/>
   <path class="fil20" d="M1671 898c0,-10 2,-19 5,-28 3,-8 7,-16 13,-22 6,-6 14,-12 22,-15 8,-4 18,-6 29,-6 7,0 14,1 20,2 6,1 11,3 17,6l-8 30c-4,-2 -7,-3 -12,-4 -4,-1 -9,-1 -14,-1 -11,0 -19,3 -25,10 -6,7 -8,16 -8,28 0,12 2,21 8,28 5,6 14,10 27,10 4,0 9,-1 14,-2 6,-1 10,-2 15,-4l5 31c-4,2 -10,4 -16,5 -7,1 -14,2 -22,2 -12,0 -23,-2 -32,-5 -9,-4 -16,-9 -22,-15 -5,-6 -9,-14 -12,-23 -3,-8 -4,-17 -4,-27z"/>
   <path class="fil20" d="M1855 792c0,7 -3,12 -7,16 -5,4 -10,6 -16,6 -6,0 -12,-2 -16,-6 -4,-4 -7,-9 -7,-16 0,-7 3,-12 7,-16 4,-4 10,-6 16,-6 6,0 11,2 16,6 4,4 7,9 7,16zm-54 220c-3,0 -6,-1 -11,-1 -5,-1 -9,-2 -13,-3l5 -31c3,1 5,2 7,2 2,0 5,1 8,1 6,0 10,-2 12,-6 3,-3 4,-8 4,-15l0 -128 38 0 0 129c0,17 -4,30 -13,39 -9,8 -21,13 -37,13z"/>
   <path class="fil20" d="M1941 938c4,0 7,0 11,0 3,0 6,-1 8,-1l0 -29c-2,0 -4,0 -7,-1 -3,0 -6,0 -8,0 -4,0 -7,0 -10,0 -4,1 -6,2 -9,3 -2,1 -4,3 -5,5 -2,2 -2,4 -2,7 0,6 2,10 6,13 4,2 9,3 16,3zm-3 -111c11,0 21,1 28,4 8,2 13,6 18,11 4,5 8,10 10,17 1,7 2,15 2,23l0 79c-5,1 -13,2 -22,4 -10,2 -22,2 -35,2 -9,0 -17,0 -24,-2 -7,-1 -13,-4 -18,-7 -5,-4 -9,-8 -12,-14 -3,-6 -4,-13 -4,-21 0,-7 2,-14 5,-20 3,-5 7,-9 12,-12 6,-4 12,-6 18,-7 7,-2 14,-3 22,-3 4,0 9,1 13,1 3,0 7,1 9,2l0 -4c0,-6 -2,-12 -6,-15 -4,-4 -11,-6 -20,-6 -7,0 -13,0 -19,1 -7,1 -12,2 -17,4l-4 -31c2,0 4,-1 8,-2 3,0 7,-1 11,-2 4,0 8,-1 12,-1 4,-1 9,-1 13,-1z"/>
   <path class="fil20" d="M597 1085c2,7 4,15 6,23 3,9 5,18 8,27 3,10 6,19 9,28 3,10 5,18 8,26 2,-8 5,-18 7,-28 2,-10 4,-21 6,-31 2,-11 4,-22 6,-33 2,-11 4,-21 6,-31l41 0c-6,30 -13,59 -20,90 -8,30 -17,59 -26,86l-36 0c-6,-16 -12,-33 -17,-51 -6,-18 -11,-36 -17,-54 -5,18 -11,36 -16,54 -6,18 -11,35 -17,51l-36 0c-9,-27 -18,-56 -26,-86 -7,-31 -14,-60 -20,-90l43 0c1,10 3,20 5,31 2,11 5,22 7,33 2,10 4,21 7,31 2,10 4,20 7,28 3,-8 6,-17 9,-26 2,-9 5,-19 8,-28 3,-9 5,-18 7,-27 3,-9 5,-16 7,-23l34 0z"/>
   <path class="fil20" d="M797 1142c-3,-1 -7,-2 -12,-3 -5,-1 -9,-1 -15,-1 -2,0 -5,0 -8,1 -4,0 -6,1 -8,1l0 102 -38 0 0 -126c7,-3 15,-5 24,-7 10,-2 20,-3 31,-3 2,0 5,0 8,0 3,0 5,1 8,1 3,1 6,1 9,2 3,0 5,1 7,2l-6 31z"/>
   <path class="fil20" d="M911 1175c0,-12 -2,-21 -7,-27 -5,-7 -11,-10 -20,-10 -9,0 -15,3 -20,10 -5,6 -7,15 -7,27 0,12 2,21 7,28 5,7 11,10 20,10 9,0 15,-3 20,-10 5,-7 7,-16 7,-28zm39 0c0,11 -2,20 -5,29 -3,9 -7,16 -13,22 -6,7 -13,11 -21,15 -8,3 -17,5 -27,5 -10,0 -19,-2 -27,-5 -8,-4 -15,-8 -21,-15 -5,-6 -10,-13 -13,-22 -3,-9 -5,-18 -5,-29 0,-10 2,-20 5,-29 3,-8 8,-16 14,-22 6,-6 13,-11 21,-14 8,-3 17,-5 26,-5 10,0 19,2 27,5 8,3 15,8 20,14 6,6 11,14 14,22 3,9 5,19 5,29z"/>
   <path class="fil20" d="M976 1175c0,-9 1,-18 5,-27 3,-8 7,-16 13,-22 6,-7 13,-12 22,-15 8,-4 18,-6 29,-6 7,0 14,1 19,2 6,1 12,3 18,5l-8 31c-4,-2 -8,-3 -12,-4 -4,-1 -9,-1 -14,-1 -11,0 -20,3 -25,10 -6,7 -8,16 -8,27 0,12 2,22 7,28 6,7 15,10 27,10 5,0 10,0 15,-1 5,-1 10,-2 15,-4l5 31c-4,2 -10,4 -16,5 -7,1 -14,2 -22,2 -13,0 -23,-2 -32,-6 -9,-3 -16,-8 -22,-14 -5,-7 -10,-14 -12,-23 -3,-8 -4,-18 -4,-28z"/>
   <path class="fil20" d="M1092 1142l28 -13 0 -78 38 -6 0 65 18 -9 11 23 -29 15 0 52c0,3 0,6 0,9 1,3 2,5 3,7 2,2 4,3 7,4 2,2 6,2 11,3l-6 31c-11,0 -20,-1 -27,-4 -7,-2 -12,-5 -16,-9 -4,-4 -7,-9 -8,-14 -2,-6 -2,-13 -2,-20l0 -40 -16 8 -12 -24z"/>
   <path class="fil20" d="M1264 1216c4,0 7,0 10,0 4,-1 7,-1 9,-1l0 -29c-2,0 -4,-1 -7,-1 -3,0 -6,0 -9,0 -3,0 -7,0 -10,0 -3,1 -6,1 -8,3 -2,1 -4,2 -6,5 -1,2 -2,4 -2,7 0,6 2,10 6,12 4,3 10,4 17,4zm-3 -111c11,0 20,1 28,4 7,2 13,6 18,11 4,4 7,10 9,17 2,7 3,14 3,23l0 79c-5,1 -13,2 -23,4 -9,1 -21,2 -35,2 -8,0 -16,-1 -23,-2 -7,-2 -13,-4 -19,-8 -5,-3 -8,-8 -11,-13 -3,-6 -4,-13 -4,-21 0,-8 1,-14 4,-20 4,-5 8,-9 13,-13 5,-3 11,-5 18,-7 7,-1 14,-2 21,-2 5,0 10,0 13,1 4,0 7,1 10,1l0 -3c0,-7 -2,-12 -6,-16 -4,-4 -11,-5 -21,-5 -6,0 -12,0 -19,1 -6,1 -11,2 -16,4l-5 -31c2,0 5,-1 8,-2 4,-1 7,-1 11,-2 4,0 8,-1 13,-1 4,-1 8,-1 13,-1z"/>
   <path class="fil20" d="M1436 1166c-4,12 -7,25 -11,38 -4,13 -8,25 -12,38l-30 0c-3,-7 -6,-15 -10,-25 -3,-10 -7,-21 -11,-32 -4,-12 -8,-24 -12,-37 -4,-13 -7,-26 -11,-39l40 0c1,6 3,12 4,19 2,8 4,15 5,23 2,7 4,15 6,23 2,8 4,15 6,22 2,-7 4,-15 7,-23 2,-8 4,-15 6,-23 2,-7 4,-15 5,-22 2,-7 4,-13 5,-19l27 0c2,6 3,12 5,19 2,7 4,15 5,22 2,8 4,15 6,23 2,8 4,16 7,23 2,-7 4,-14 6,-22 2,-8 4,-16 6,-23 1,-8 3,-15 5,-23 1,-7 3,-13 4,-19l40 0c-4,13 -8,26 -12,39 -4,13 -8,25 -12,37 -4,11 -7,22 -11,32 -4,10 -7,18 -10,25l-30 0c-4,-13 -8,-25 -12,-38 -4,-13 -8,-26 -11,-38z"/>
   <path class="fil20" d="M1595 1215c7,0 12,-1 15,-2 3,-1 5,-4 5,-8 0,-3 -2,-6 -6,-8 -4,-2 -9,-5 -17,-8 -6,-2 -11,-4 -16,-6 -5,-3 -9,-6 -13,-9 -3,-3 -6,-7 -8,-12 -1,-4 -2,-10 -2,-16 0,-13 4,-23 14,-30 9,-7 22,-11 38,-11 8,0 16,1 24,2 7,2 13,3 17,5l-6 29c-5,-1 -9,-3 -15,-4 -5,-1 -11,-2 -17,-2 -12,0 -18,4 -18,10 0,2 0,3 1,4 0,2 1,3 3,4 1,1 4,2 6,3 3,2 6,3 10,5 9,3 15,6 21,9 5,3 10,6 13,10 3,3 5,7 6,11 2,4 2,9 2,15 0,13 -5,23 -15,30 -10,7 -24,10 -42,10 -12,0 -22,-1 -29,-3 -8,-2 -14,-4 -17,-5l6 -31c7,3 14,5 20,6 7,1 14,2 20,2z"/>
   <path class="fil20" d="M1722 1157c3,-4 7,-9 11,-13 4,-4 8,-9 12,-13 4,-4 7,-8 10,-12 4,-4 7,-8 9,-10l45 0c-9,10 -18,20 -26,29 -9,9 -18,19 -28,29 5,5 10,10 15,17 6,6 11,13 16,19 5,7 10,14 14,21 4,7 8,13 11,18l-44 0c-3,-4 -6,-9 -9,-14 -4,-6 -7,-11 -11,-16 -4,-6 -8,-11 -12,-16 -5,-5 -9,-9 -13,-12l0 58 -38 0 0 -191 38 -6 0 112z"/>
   <path class="fil20" d="M1883 1216c4,0 7,0 11,0 3,-1 6,-1 8,-1l0 -29c-2,0 -4,-1 -7,-1 -3,0 -6,0 -8,0 -4,0 -7,0 -10,0 -4,1 -6,1 -9,3 -2,1 -4,2 -5,5 -2,2 -2,4 -2,7 0,6 2,10 6,12 4,3 9,4 16,4zm-3 -111c11,0 21,1 28,4 7,2 13,6 18,11 4,4 8,10 10,17 1,7 2,14 2,23l0 79c-5,1 -13,2 -22,4 -10,1 -22,2 -35,2 -9,0 -17,-1 -24,-2 -7,-2 -13,-4 -18,-8 -5,-3 -9,-8 -12,-13 -3,-6 -4,-13 -4,-21 0,-8 2,-14 5,-20 3,-5 7,-9 12,-13 6,-3 12,-5 18,-7 7,-1 14,-2 21,-2 5,0 10,0 14,1 3,0 7,1 9,1l0 -3c0,-7 -2,-12 -6,-16 -4,-4 -11,-5 -20,-5 -7,0 -13,0 -19,1 -7,1 -12,2 -17,4l-5 -31c3,0 5,-1 9,-2 3,-1 7,-1 11,-2 3,0 8,-1 12,-1 4,-1 9,-1 13,-1z"/>
  </g>
 </g>
</svg>
