<?xml version="1.0" encoding="UTF-8"?>
<!DOCTYPE svg PUBLIC "-//W3C//DTD SVG 1.1//EN" "http://www.w3.org/Graphics/SVG/1.1/DTD/svg11.dtd">
<!-- Creator: CorelDRAW X8 -->
<svg xmlns="http://www.w3.org/2000/svg" xml:space="preserve" width="14.3844mm" height="5.08mm" version="1.1" style="shape-rendering:geometricPrecision; text-rendering:geometricPrecision; image-rendering:optimizeQuality; fill-rule:evenodd; clip-rule:evenodd"
viewBox="0 0 4321 1526"
 xmlns:xlink="http://www.w3.org/1999/xlink">
 <defs>
  <style type="text/css">
   <![CDATA[
    .fil0 {fill:#EB6335;fill-rule:nonzero}
    .fil1 {fill:#00A37A;fill-rule:nonzero}
   ]]>
  </style>
 </defs>
 <g id="Warstwa_x0020_1">
  <metadata id="CorelCorpID_0Corel-Layer"/>
  <g id="_1488457852048">
   <path class="fil0" d="M0 829l0 -140c0,-44 12,-75 35,-95 24,-20 56,-30 95,-30 39,0 71,10 94,30 24,20 36,51 36,95l0 140c0,43 -12,74 -36,95 -23,20 -55,30 -94,30 -39,0 -71,-10 -95,-30 -23,-21 -35,-52 -35,-95zm83 0c0,35 15,53 47,53 31,0 47,-18 47,-53l0 -140c0,-36 -16,-53 -47,-53 -32,0 -47,17 -47,53l0 140z"/>
   <path class="fil0" d="M461 925l0 -337c0,-6 2,-12 7,-17 5,-5 11,-7 19,-7l109 0c87,0 130,37 130,113 0,55 -21,91 -64,107l65 117c2,3 3,6 3,10 0,10 -6,20 -17,29 -11,9 -23,14 -35,14 -13,0 -22,-5 -27,-16l-72 -140 -35 0 0 127c0,8 -4,15 -12,19 -9,4 -18,7 -30,7 -11,0 -21,-3 -29,-7 -8,-4 -12,-11 -12,-19zm83 -191l52 0c16,0 27,-4 36,-11 8,-8 12,-21 12,-38 0,-18 -4,-30 -12,-38 -9,-8 -20,-11 -36,-11l-52 0 0 98z"/>
   <path class="fil0" d="M908 925l0 -337c0,-8 4,-14 12,-18 8,-4 18,-6 29,-6 12,0 21,2 29,6 8,4 13,10 13,18l0 337c0,8 -5,15 -13,19 -8,4 -17,7 -29,7 -11,0 -21,-3 -29,-7 -8,-4 -12,-11 -12,-19z"/>
   <path class="fil0" d="M1175 925l0 -336c0,-8 3,-14 10,-19 7,-4 16,-6 26,-6l188 0c8,0 15,3 19,10 4,7 6,15 6,25 0,10 -2,19 -6,26 -5,7 -11,11 -19,11l-142 0 0 89 80 0c8,0 14,3 18,10 4,6 7,14 7,22 0,8 -2,16 -7,22 -4,6 -10,10 -18,10l-80 0 0 90 142 0c8,0 14,3 19,10 4,7 6,16 6,26 0,10 -2,18 -6,25 -4,7 -11,11 -19,11l-188 0c-10,0 -19,-3 -26,-7 -7,-4 -10,-11 -10,-19z"/>
   <path class="fil0" d="M1577 925l0 -336c0,-8 4,-14 12,-19 8,-4 18,-6 29,-6 16,0 28,2 35,6 8,5 16,17 26,35l86 163 0 -180c0,-8 4,-14 12,-18 8,-4 18,-6 29,-6 11,0 21,2 29,6 8,4 12,10 12,18l0 337c0,8 -4,15 -12,19 -8,4 -18,7 -29,7 -23,0 -38,-8 -46,-23l-101 -183 0 180c0,8 -4,15 -12,19 -8,4 -18,7 -29,7 -11,0 -21,-3 -29,-7 -8,-4 -12,-11 -12,-19z"/>
   <path class="fil0" d="M1986 599c0,-10 2,-18 6,-25 4,-7 11,-10 19,-10l228 0c9,0 15,3 19,10 4,7 6,15 6,25 0,10 -2,19 -6,26 -5,7 -11,11 -19,11l-73 0 0 289c0,8 -4,14 -12,19 -8,4 -18,7 -29,7 -11,0 -21,-3 -29,-7 -8,-5 -12,-11 -12,-19l0 -289 -73 0c-8,0 -14,-4 -19,-11 -4,-7 -6,-16 -6,-26z"/>
   <path class="fil0" d="M2401 829l0 -241c0,-8 4,-14 12,-18 8,-4 18,-6 30,-6 11,0 21,2 29,6 8,4 12,10 12,18l0 241c0,35 17,53 51,53 34,0 51,-18 51,-53l0 -241c0,-8 4,-14 12,-18 8,-4 17,-6 29,-6 11,0 21,2 29,6 8,4 12,10 12,18l0 241c0,43 -12,74 -36,95 -25,20 -57,30 -97,30 -41,0 -73,-10 -97,-30 -24,-21 -37,-52 -37,-95z"/>
   <path class="fil0" d="M2804 843c0,-15 3,-25 10,-31 6,-5 17,-8 32,-8 26,0 40,8 41,25 1,7 1,13 2,17 1,5 3,10 6,16 3,7 7,12 14,15 6,3 15,5 24,5 33,0 49,-18 49,-53l0 -193 -46 0c-8,0 -14,-4 -19,-11 -4,-7 -6,-16 -6,-26 0,-10 2,-18 6,-25 4,-7 10,-10 19,-10l92 0c10,0 19,2 26,6 7,5 10,11 10,19l0 240c0,43 -11,74 -35,95 -23,20 -54,30 -92,30 -39,0 -71,-10 -95,-30 -25,-20 -38,-47 -38,-81z"/>
   <path class="fil0" d="M3419 887c0,-10 4,-20 11,-30 7,-9 15,-14 25,-14 5,0 11,2 18,6 6,4 12,9 18,14 5,5 13,10 23,14 10,5 20,7 31,7 14,0 26,-3 36,-9 10,-6 15,-14 15,-26 0,-12 -5,-22 -17,-31 -11,-9 -25,-17 -42,-24 -16,-7 -33,-15 -49,-24 -17,-9 -31,-22 -42,-39 -12,-16 -18,-36 -18,-59 0,-37 14,-65 40,-84 27,-18 59,-28 96,-28 9,0 19,1 29,2 10,1 21,3 34,6 12,3 23,8 30,15 8,7 12,16 12,25 0,10 -3,19 -8,29 -6,10 -14,15 -24,15 -5,0 -14,-3 -27,-10 -14,-6 -29,-10 -46,-10 -18,0 -31,3 -40,10 -8,6 -13,13 -13,22 0,8 4,16 13,22 8,7 18,13 30,18 13,4 26,11 41,18 15,8 28,16 41,25 12,9 22,22 30,38 9,16 13,35 13,55 0,37 -12,65 -37,85 -24,21 -56,31 -95,31 -35,0 -65,-7 -90,-21 -25,-14 -38,-30 -38,-48z"/>
   <path class="fil0" d="M3826 925l0 -337c0,-8 4,-14 12,-18 8,-4 18,-6 29,-6 11,0 21,2 29,6 8,4 12,10 12,18l0 337c0,8 -4,15 -12,19 -8,4 -18,7 -29,7 -11,0 -21,-3 -29,-7 -8,-4 -12,-11 -12,-19z"/>
   <path class="fil0" d="M4071 925l0 -336c0,-8 4,-14 11,-19 7,-4 15,-6 25,-6l189 0c8,0 14,3 18,10 4,7 7,15 7,25 0,10 -3,19 -7,26 -4,7 -11,11 -18,11l-142 0 0 89 79 0c8,0 14,3 18,10 5,6 7,14 7,22 0,8 -2,16 -6,22 -5,6 -11,10 -19,10l-79 0 0 90 142 0c7,0 14,3 18,10 4,7 7,16 7,26 0,19 -6,31 -18,35 -11,7 -19,16 -26,27 -7,10 -10,21 -10,30 0,17 10,26 31,26 9,0 13,6 13,18 0,10 -5,15 -16,15 -23,0 -39,-5 -50,-14 -11,-10 -17,-22 -17,-37 0,-24 11,-45 32,-64l-153 0c-10,0 -18,-3 -25,-7 -7,-4 -11,-11 -11,-19z"/>
   <path class="fil1" d="M741 29c-8,-5 -17,-6 -26,-2l-144 66c-13,6 -19,22 -13,36 6,13 22,19 35,13l60 -28 -168 258c-8,13 -4,29 8,37 4,3 9,4 14,4 9,0 18,-4 23,-12l168 -258 -1 67c0,15 12,27 26,27 1,0 1,0 1,0 14,0 26,-12 27,-26l2 -159c0,-9 -4,-18 -12,-23z"/>
   <path class="fil1" d="M1198 230c-13,-8 -29,-5 -37,8l-35 56 0 -249c0,-15 -12,-27 -27,-27l-191 0c-15,0 -27,12 -27,27 0,15 12,27 27,27l164 0 0 222 -35 -56c-8,-13 -25,-16 -37,-8 -13,7 -16,24 -8,36l84 135c5,8 14,12 23,12l0 0c9,0 18,-4 23,-12l84 -135c8,-12 4,-29 -8,-36z"/>
   <path class="fil1" d="M2634 1282l-85 -134c-5,-8 -13,-13 -23,-13l0 0c-9,0 -17,5 -22,13l-85 134c-8,13 -4,29 9,37 4,3 9,4 14,4 9,0 17,-4 23,-12l35 -57 0 54c0,143 -124,164 -198,164l-189 0c-15,0 -27,12 -27,27 0,15 12,27 27,27l189 0c157,0 251,-81 251,-218l0 -53 36 56c8,12 24,16 37,8 12,-8 16,-24 8,-37z"/>
   <path class="fil1" d="M460 1283l-84 -134c-5,-8 -14,-13 -23,-13l0 0c-9,0 -18,5 -23,13l-84 134c-8,13 -4,29 8,37 5,3 10,4 14,4 9,0 18,-4 23,-12l35 -57 0 69c0,1 -3,148 -138,148 -121,0 -128,-143 -129,-149 0,-15 -12,-27 -27,-26 -15,1 -27,13 -26,28 3,69 44,201 182,201 157,0 192,-150 192,-202l0 -68 35 56c8,12 25,16 37,8 13,-8 16,-24 8,-37z"/>
   <path class="fil1" d="M1939 1466l-85 -134c-8,-13 -25,-16 -37,-9 -13,8 -16,25 -8,37l37 58 -629 -279c-14,-6 -29,0 -35,13 -6,14 0,29 13,35l624 278 -63 8c-15,1 -25,15 -24,29 2,14 13,24 27,24 1,0 2,0 3,0l158 -20c9,-1 17,-6 21,-15 4,-8 3,-18 -2,-25z"/>
   <path class="fil1" d="M3065 114l-134 -85c-13,-8 -29,-4 -37,9 -8,12 -4,29 8,37l56 35 -416 0c-15,0 -27,12 -27,27l0 250c0,15 12,26 27,26 15,0 27,-11 27,-26l0 -224 389 0 -56 36c-12,8 -16,24 -8,37 5,8 14,12 22,12 5,0 10,-1 15,-4l134 -85c8,-5 13,-13 13,-23 0,-9 -5,-17 -13,-22z"/>
   <path class="fil1" d="M3731 1392l-135 -85c-12,-8 -29,-4 -37,9 -8,12 -4,29 9,36l56 36 -128 0c-186,0 -236,-24 -236,-193l0 -33c0,-15 -12,-27 -27,-27 -15,0 -27,12 -27,27l0 33c0,211 90,246 290,246l128 0 -56 36c-13,7 -17,24 -9,36 5,8 14,13 23,13 5,0 10,-1 14,-4l135 -85c7,-5 12,-14 12,-23 0,-9 -5,-18 -12,-22z"/>
   <polygon class="fil1" points="4302,1346 4264,1309 4196,1377 4128,1309 4090,1346 4158,1415 4090,1483 4128,1520 4196,1452 4264,1520 4302,1483 4234,1415 "/>
   <path class="fil1" d="M1581 317c-57,0 -103,-46 -103,-103 0,-56 46,-102 103,-102 56,0 102,46 102,102 0,57 -46,103 -102,103zm0 -151c-27,0 -49,22 -49,48 0,27 22,49 49,49 26,0 48,-22 48,-49 0,-26 -22,-48 -48,-48z"/>
   <path class="fil1" d="M1904 429l-38 -38 95 -94 38 37 -95 95zm151 -151l-37 -38 94 -95 38 38 -95 95zm151 -152l-37 -37 88 -89 38 38 -89 88z"/>
   <path class="fil1" d="M821 1496c-35,0 -65,-11 -87,-34 -40,-39 -40,-100 -40,-102l53 0 -26 0 26 0c0,8 3,83 74,83 71,0 75,-75 75,-83l53 0c0,47 -27,136 -128,136z"/>
  </g>
 </g>
</svg>
